<?xml version="1.0" encoding="UTF-8" standalone="no"?>
<!DOCTYPE svg PUBLIC "-//W3C//DTD SVG 20010904//EN"
"http://www.w3.org/TR/2001/REC-SVG-20010904/DTD/svg10.dtd">
<!-- Created with Inkscape (http://www.inkscape.org/) -->
<svg
   id="svg1"
   sodipodi:version="0.32"
   inkscape:version="0.38.1"
   width="240.00000pt"
   height="212.00000pt"
   sodipodi:docbase="/home/patrick/Documents/graphics"
   sodipodi:docname="casosLogo.svgz"
   xmlns="http://www.w3.org/2000/svg"
   xmlns:inkscape="http://www.inkscape.org/namespaces/inkscape"
   xmlns:sodipodi="http://sodipodi.sourceforge.net/DTD/sodipodi-0.dtd"
   xmlns:xlink="http://www.w3.org/1999/xlink">
  <defs
     id="defs34" />
  <sodipodi:namedview
     id="base"
     pagecolor="#ffffff"
     bordercolor="#666666"
     borderopacity="1.0"
     inkscape:pageopacity="0.0"
     inkscape:pageshadow="2"
     inkscape:zoom="3.4732669"
     inkscape:cx="95.878131"
     inkscape:cy="167.43407"
     inkscape:window-width="953"
     inkscape:window-height="844"
     inkscape:window-x="0"
     inkscape:window-y="25" />
  <path
     style="fill:#7099dd;fill-rule:evenodd;stroke:none;stroke-opacity:1;stroke-width:1pt;stroke-linejoin:miter;stroke-linecap:butt;fill-opacity:1.0000000;"
     d="M 0.0000000,158.21466 L 31.638156,157.62330 L 31.638156,227.70033 L 65.937466,227.70033 L 65.937466,185.71325 L 109.99434,185.71325 L 109.99434,227.70033 L 130.10082,227.70033 L 130.10082,166.53541 L 207.86565,166.53541 L 207.86565,141.65637 L 227.67645,141.65637 L 227.67645,229.77012 L 240.09516,229.77012 L 240.09516,177.72978 L 255.76640,177.72978 L 255.76640,227.70033 L 273.80311,227.70033 L 273.80311,195.47081 L 299.82328,195.47081 L 299.82328,265.84353 L -0.29568370,265.84353 L 0.0000000,158.21466 z "
     id="bottomBuildings" />
  <path
     style="fill:#1347aa;fill-opacity:1.0000000;fill-rule:evenodd;stroke:none;stroke-width:1.0000000pt;"
     d="M 35.777728,223.85644 L 35.777729,185.71325 L 47.900760,185.71325 L 47.900760,205.81973 L 61.797894,205.81973 L 61.797894,223.56076 L 35.777728,223.85644 z "
     id="path880" />
  <path
     style="fill:#1347aa;fill-opacity:1.0000000;fill-rule:evenodd;stroke:none;stroke-width:1.0000000pt;"
     d="M 89.887846,134.26428 L 90.183530,181.57367 L 113.83823,181.57367 L 113.83823,223.56076 L 125.96126,223.56076 L 125.96126,161.46718 L 135.71882,161.46718 L 135.71882,133.67291 L 89.887846,134.26428 z "
     id="path881" />
  <path
     style="fill:#1347aa;fill-opacity:1.0000000;fill-rule:evenodd;stroke:none;stroke-width:1.0000000pt;"
     d="M 161.44330,123.61966 L 161.73899,159.69308 L 195.74261,159.69308 L 195.74261,123.61967 L 161.44330,123.61966 z "
     id="path882" />
  <path
     style="fill:#1347aa;fill-opacity:1.0000000;fill-rule:evenodd;stroke:none;stroke-width:1.0000000pt;stroke-opacity:1.0000000;"
     d="M 231.81602,159.69308 L 231.81602,225.63055 L 235.95560,225.63055 L 235.95560,173.59021 L 259.90598,173.59021 L 259.90598,223.56076 L 269.95923,223.56076 L 269.95923,191.62692 L 299.82328,191.62692 L 299.82328,159.69308 L 283.85636,159.69308 L 283.85636,137.81248 L 246.30453,137.81248 L 246.30453,159.69308 L 231.81602,159.69308 z "
     id="path886" />
  <path
     style="fill:none;fill-rule:evenodd;stroke:black;stroke-opacity:1;stroke-width:5.0000000;stroke-linejoin:miter;stroke-linecap:butt;fill-opacity:0.75;stroke-dasharray:none;"
     d="M 154.93827,160.87581 L 59.728108,130.42039 L 244.23474,104.69591"
     id="path965"
     sodipodi:nodetypes="ccc" />
  <path
     sodipodi:type="arc"
     style="fill:#ffffff;fill-opacity:1.0000000;fill-rule:evenodd;stroke:#000000;stroke-width:3.7500000;stroke-dasharray:none;"
     id="path971"
     sodipodi:cx="265.81964"
     sodipodi:cy="117.11462"
     sodipodi:rx="30.751106"
     sodipodi:ry="30.751106"
     d="M 296.57075 117.11462 A 30.751106 30.751106 0 1 0 235.06853,117.11462 A 30.751106 30.751106 0 1 0 296.57075 117.11462 z" />
  <g
     id="rightNodes">
    <path
       sodipodi:type="arc"
       style="fill:#000000;fill-opacity:1.0000000;fill-rule:evenodd;stroke:#000000;stroke-width:1.0000000pt;"
       id="path903"
       sodipodi:cx="-31.638157"
       sodipodi:cy="81.928261"
       sodipodi:rx="8.5748272"
       sodipodi:ry="8.2791433"
       d="M -23.063330 81.928261 A 8.5748272 8.2791433 0 1 0 -40.212984,81.928261 A 8.5748272 8.2791433 0 1 0 -23.063330 81.928261 z"
       transform="matrix(0.800000,0.000000,0.000000,0.800000,281.0770,63.99070)" />
    <path
       sodipodi:type="arc"
       style="fill:#000000;fill-opacity:1.0000000;fill-rule:evenodd;stroke:#000000;stroke-width:1.0000000pt;"
       id="path904"
       sodipodi:cx="-31.638157"
       sodipodi:cy="81.928261"
       sodipodi:rx="8.5748272"
       sodipodi:ry="8.2791433"
       d="M -23.063330 81.928261 A 8.5748272 8.2791433 0 1 0 -40.212984,81.928261 A 8.5748272 8.2791433 0 1 0 -23.063330 81.928261 z"
       transform="matrix(0.800000,0.000000,0.000000,0.800000,298.8179,39.44898)" />
  </g>
  <rect
     style="fill:#ffffff;fill-opacity:1.0000000;fill-rule:evenodd;stroke:#000000;stroke-width:3.7500000;stroke-dasharray:none;"
     id="rect972"
     width="60.910843"
     height="82.495750"
     x="147.84186"
     y="158.51035" />
  <g
     id="bottomNodes"
     transform="">
    <path
       style="fill:none;fill-opacity:0.75000000;fill-rule:evenodd;stroke:#000000;stroke-width:2.5000000;"
       d="M 171.20087,226.81328 L 157.00805,208.18520 L 185.68937,171.52043 L 198.40377,189.26145"
       id="path909" />
    <path
       sodipodi:type="arc"
       style="fill-rule:evenodd;stroke:#000000;stroke-width:1.0000000pt;"
       id="path896"
       sodipodi:cx="-31.638157"
       sodipodi:cy="81.928261"
       sodipodi:rx="8.5748272"
       sodipodi:ry="8.2791433"
       d="M -23.063330 81.928261 A 8.5748272 8.2791433 0 1 0 -40.212984,81.928261 A 8.5748272 8.2791433 0 1 0 -23.063330 81.928261 z"
       transform="matrix(0.800000,0.000000,0.000000,0.800000,209.9350,144.0297)" />
    <path
       sodipodi:type="arc"
       style="fill-rule:evenodd;stroke:#000000;stroke-width:1.0000000pt;"
       id="path897"
       sodipodi:cx="-31.638157"
       sodipodi:cy="81.928261"
       sodipodi:rx="8.5748272"
       sodipodi:ry="8.2791433"
       d="M -23.063330 81.928261 A 8.5748272 8.2791433 0 1 0 -40.212984,81.928261 A 8.5748272 8.2791433 0 1 0 -23.063330 81.928261 z"
       transform="matrix(0.800000,0.000000,0.000000,0.800000,223.1229,124.0146)" />
    <path
       sodipodi:type="arc"
       style="fill-rule:evenodd;stroke:#000000;stroke-width:1.0000000pt;"
       id="path898"
       sodipodi:cx="-31.638157"
       sodipodi:cy="81.928261"
       sodipodi:rx="8.5748272"
       sodipodi:ry="8.2791433"
       d="M -23.063330 81.928261 A 8.5748272 8.2791433 0 1 0 -40.212984,81.928261 A 8.5748272 8.2791433 0 1 0 -23.063330 81.928261 z"
       transform="matrix(0.800000,0.000000,0.000000,0.800000,196.8057,124.6059)" />
    <path
       sodipodi:type="arc"
       style="fill-rule:evenodd;stroke:#000000;stroke-width:1.0000000pt;"
       id="path900"
       sodipodi:cx="-31.638157"
       sodipodi:cy="81.928261"
       sodipodi:rx="8.5748272"
       sodipodi:ry="8.2791433"
       d="M -23.063330 81.928261 A 8.5748272 8.2791433 0 1 0 -40.212984,81.928261 A 8.5748272 8.2791433 0 1 0 -23.063330 81.928261 z"
       transform="matrix(0.800000,0.000000,0.000000,0.800000,209.5215,106.2735)" />
    <path
       sodipodi:type="arc"
       style="fill-rule:evenodd;stroke:#000000;stroke-width:1.0000000pt;"
       id="path901"
       sodipodi:cx="-31.638157"
       sodipodi:cy="81.928261"
       sodipodi:rx="8.5748272"
       sodipodi:ry="8.2791433"
       d="M -23.063330 81.928261 A 8.5748272 8.2791433 0 1 0 -40.212984,81.928261 A 8.5748272 8.2791433 0 1 0 -23.063330 81.928261 z"
       transform="matrix(0.800000,0.000000,0.000000,0.800000,196.8071,161.5664)" />
    <path
       sodipodi:type="arc"
       style="fill-rule:evenodd;stroke:#000000;stroke-width:1.0000000pt;"
       id="path902"
       sodipodi:cx="-31.638157"
       sodipodi:cy="81.928261"
       sodipodi:rx="8.5748272"
       sodipodi:ry="8.2791433"
       d="M -23.063330 81.928261 A 8.5748272 8.2791433 0 1 0 -40.212984,81.928261 A 8.5748272 8.2791433 0 1 0 -23.063330 81.928261 z"
       transform="matrix(0.800000,0.000000,0.000000,0.800000,183.2056,143.8253)" />
    <path
       style="fill:none;fill-opacity:0.75000000;fill-rule:evenodd;stroke:#000000;stroke-width:2.5000000;"
       d="M 185.68937,208.77657 L 170.90518,189.85281 L 170.90518,189.85281 L 170.90518,189.85281"
       id="path913" />
  </g>
  <path
     sodipodi:type="arc"
     style="fill:#ffffff;fill-opacity:1.0000000;fill-rule:evenodd;stroke:#000000;stroke-width:3.7500000;stroke-dasharray:none;"
     id="path970"
     sodipodi:cx="37.847515"
     sodipodi:cy="156.14487"
     sodipodi:rx="36.073414"
     sodipodi:ry="35.482044"
     d="M 73.920929 156.14487 A 36.073414 35.482044 0 1 0 1.7741013,156.14487 A 36.073414 35.482044 0 1 0 73.920929 156.14487 z"
     transform="translate(0.591367,1.182735)" />
  <g
     id="leftNodes">
    <path
       sodipodi:type="arc"
       style="fill:#000000;fill-opacity:1.0000000;fill-rule:evenodd;stroke:#000000;stroke-width:1.0000000pt;"
       id="path905"
       sodipodi:cx="-31.638157"
       sodipodi:cy="81.928261"
       sodipodi:rx="8.5748272"
       sodipodi:ry="8.2791433"
       d="M -23.063330 81.928261 A 8.5748272 8.2791433 0 1 0 -40.212984,81.928261 A 8.5748272 8.2791433 0 1 0 -23.063330 81.928261 z"
       transform="matrix(0.800000,0.000000,0.000000,0.800000,79.71634,74.04398)" />
    <path
       sodipodi:type="arc"
       style="fill:#000000;fill-opacity:1.0000000;fill-rule:evenodd;stroke:#000000;stroke-width:1.0000000pt;"
       id="path906"
       sodipodi:cx="-31.638157"
       sodipodi:cy="81.928261"
       sodipodi:rx="8.5748272"
       sodipodi:ry="8.2791433"
       d="M -23.063330 81.928261 A 8.5748272 8.2791433 0 1 0 -40.212984,81.928261 A 8.5748272 8.2791433 0 1 0 -23.063330 81.928261 z"
       transform="matrix(0.800000,0.000000,0.000000,0.800000,46.30406,76.70513)" />
    <path
       sodipodi:type="arc"
       style="fill:#000000;fill-opacity:1.0000000;fill-rule:evenodd;stroke:#000000;stroke-width:1.0000000pt;"
       id="path908"
       sodipodi:cx="-31.638157"
       sodipodi:cy="81.928261"
       sodipodi:rx="8.5748272"
       sodipodi:ry="8.2791433"
       d="M -23.063330 81.928261 A 8.5748272 8.2791433 0 1 0 -40.212984,81.928261 A 8.5748272 8.2791433 0 1 0 -23.063330 81.928261 z"
       transform="matrix(0.800000,0.000000,0.000000,0.800000,61.67962,114.2570)" />
    <path
       style="fill:none;fill-rule:evenodd;stroke:black;stroke-opacity:1;stroke-width:2.5000000;stroke-linejoin:miter;stroke-linecap:butt;fill-opacity:0.75;stroke-dasharray:none;"
       d="M 54.997169,139.88227 L 19.810808,142.24774 L 36.664779,179.50389 L 54.997169,139.88227 z "
       id="path914" />
  </g>
  <path
     style="fill:#000000;fill-opacity:1.0000000;"
     d="M 147.67618,16.301128 C 144.17626,16.889851 137.69895,18.393607 134.56510,20.034974 C 124.50214,25.305571 122.90233,41.996759 128.38606,51.354625 C 133.47681,60.041430 146.46607,64.220955 150.31663,73.726650 C 151.27093,76.081642 151.13944,85.905821 150.47651,87.680164 C 149.14766,91.235330 144.32637,92.273520 142.39884,88.657050 C 139.79395,83.769632 140.55993,76.169293 140.69012,69.130264 L 126.24820,71.305788 C 124.57967,73.743516 125.54375,80.338919 125.54375,83.139989 C 125.54375,93.481519 130.17526,103.07409 142.80776,101.54596 C 147.04881,101.03260 151.77099,99.934097 155.75752,98.410455 C 168.63955,93.486653 171.59559,73.529778 164.17288,62.806465 C 159.39143,55.898489 151.12499,52.392666 146.15527,45.771026 C 143.79493,42.625754 142.56968,36.807304 143.10859,32.856948 C 143.44528,30.392555 146.12240,25.139452 149.21341,27.721720 C 153.51074,31.311575 150.56460,38.314590 150.92793,43.868809 L 164.84146,42.361789 C 165.57839,39.245587 165.71888,35.057084 165.71888,32.856948 C 165.71888,20.635063 159.75831,14.268957 147.67618,16.301128 z "
     id="letterS"
     sodipodi:nodetypes="ccccccccccccccccccc" />
  <path
     style="fill:#000000;fill-opacity:1.0000000;"
     d="M 98.149701,58.935744 C 87.209001,60.999144 76.730300,68.099800 69.529300,77.039400 C 61.008600,87.617200 61.000000,101.21200 61.000000,114.00000 L 61.000000,170.00000 C 61.000000,185.08000 56.434100,209.44300 67.418200,221.69600 C 77.667300,233.12900 99.127300,229.97500 112.00000,226.01200 C 135.00000,218.93000 137.89086,202.83903 137.89086,181.66503 C 137.89086,176.78203 139.13312,163.12977 137.79271,154.79291 L 107.43890,159.29072 C 106.49757,169.61014 107.92488,190.09375 107.16638,198.78325 C 106.69438,204.19625 102.48700,211.73800 97.317900,207.39700 C 92.067200,202.98700 95.000000,186.32300 95.000000,180.00000 L 95.000000,106.00000 C 95.000000,98.325800 92.022200,84.530500 101.00400,80.957600 C 108.41500,78.009200 108.29443,84.386407 108.30243,89.214407 C 108.94483,101.21405 107.64953,105.32864 108.36301,115.41431 L 137.18701,115.26531 C 136.84625,107.68271 139.66108,100.43654 136.10470,76.124595 C 135.52824,72.183814 132.81040,69.024326 125.84340,64.255018 C 118.99855,59.880266 102.98670,58.023494 98.149701,58.935744 z "
     id="letterC"
     sodipodi:nodetypes="cccccccccccccccccssc"
     transform="matrix(0.498068,0.000000,0.000000,0.498411,1.366104,0.646144)" />
  <path
     style="fill:#000000;fill-opacity:1.0000000;"
     d="M 224.91436,-193.17717 C 212.10186,-191.56259 197.14240,-190.60218 184.32990,-188.98760 L 160.57416,-65.712552 L 193.87500,-67.125000 L 195.68482,-102.30480 L 216.20727,-102.79171 L 221.94224,-72.058368 L 254.28125,-74.531250 L 224.91436,-193.17717 z M 206.37925,-151.34199 L 211.70806,-118.76581 L 200.67340,-117.77996 L 206.37925,-151.34199 z "
     id="letterA"
     transform="matrix(0.514614,0.000000,0.000000,0.675562,-7.379468,154.1391)"
     sodipodi:nodetypes="ccccccccccccc" />
  <path
     style="fill:#000000;fill-opacity:1.0000000;"
     d="M 196.55541,8.8623009 C 195.38545,8.8708265 194.22234,8.9237974 193.08176,9.1156367 C 186.44550,10.231773 179.22176,12.936582 175.47231,18.869063 C 172.10538,24.195923 172.65802,30.294627 172.65802,36.307007 L 172.65802,67.213969 C 172.65801,77.726950 170.57479,88.635838 182.61258,92.526432 C 184.52815,93.145459 186.59274,93.314706 188.59497,93.033104 C 195.07483,92.122011 202.96085,90.641603 207.97340,86.045259 C 213.61252,80.874251 213.48942,74.216142 213.48942,67.213969 L 213.48942,42.281509 C 213.48943,30.503565 217.42620,8.9884081 200.04513,8.9045236 C 198.89261,8.8989434 197.72536,8.8537754 196.55541,8.8623009 z M 193.08176,19.206844 C 198.25917,18.247201 196.55541,28.852856 196.55541,31.831409 L 196.55541,70.211775 C 196.55541,73.676226 198.17483,81.506368 193.56421,82.456336 C 187.70245,83.664484 189.59203,73.099782 189.59203,69.705104 L 189.59203,31.324737 C 189.59203,27.513088 187.96262,20.155671 193.08176,19.206844 z "
     id="letterO" />
  <path
     style="fill:#00000c;fill-opacity:1.0000000;"
     d="M 239.60374,1.7338907 C 236.10382,2.3226137 229.62651,3.8263694 226.49267,5.4677364 C 216.42970,10.738333 214.82989,27.429521 220.31362,36.787387 C 225.40437,45.474192 238.39363,49.653718 242.24419,59.159412 C 243.19849,61.514404 243.06700,71.338583 242.40407,73.112926 C 241.07523,76.668092 236.25393,77.706282 234.32640,74.089812 C 231.72151,69.202394 232.48749,61.602055 232.61768,54.563026 L 218.17576,56.738550 C 216.50723,59.176278 217.47132,65.771681 217.47132,68.572751 C 217.47132,78.914281 222.10282,88.506849 234.73532,86.978720 C 238.97637,86.465357 243.69855,85.366859 247.68509,83.843217 C 260.56712,78.919415 263.52315,58.962540 256.10044,48.239227 C 251.31899,41.331251 243.05256,37.825428 238.08283,31.203788 C 235.72249,28.058516 234.49724,22.240066 235.03615,18.289710 C 235.37285,15.825317 238.04996,10.572215 241.14097,13.154482 C 245.43830,16.744337 242.49216,23.747352 242.85550,29.301571 L 256.76902,27.794551 C 257.50595,24.678349 257.64645,20.489846 257.64645,18.289710 C 257.64645,6.0678254 251.68588,-0.29828056 239.60374,1.7338907 z "
     id="letterS2"
     sodipodi:nodetypes="ccccccccccccccccccc" />
</svg>
