<?xml version="1.0" encoding="UTF-8" standalone="no"?>
<!DOCTYPE svg PUBLIC "-//W3C//DTD SVG 1.0//EN"
"http://www.w3.org/TR/2001/REC-SVG-20010904/DTD/svg10.dtd">
<!-- Created with Inkscape (http://www.inkscape.org/) -->
<svg
   id="svg856"
   sodipodi:version="0.32"
   inkscape:version="0.38.1"
   xmlns="http://www.w3.org/2000/svg"
   xmlns:sodipodi="http://sodipodi.sourceforge.net/DTD/sodipodi-0.dtd"
   xmlns:inkscape="http://www.inkscape.org/namespaces/inkscape"
   xmlns:xlink="http://www.w3.org/1999/xlink"
   width="276.00000pt"
   height="104.00000pt"
   sodipodi:docbase="/home/patrick/Documents/graphics"
   sodipodi:docname="citblack2.svgz">
  <defs
     id="defs858" />
  <sodipodi:namedview
     id="base"
     pagecolor="#ffffff"
     bordercolor="#666666"
     borderopacity="1.0"
     inkscape:pageopacity="0.0"
     inkscape:pageshadow="2"
     inkscape:zoom="2.7501754"
     inkscape:cx="185.95869"
     inkscape:cy="78.585853"
     inkscape:window-width="1063"
     inkscape:window-height="781"
     inkscape:window-x="14"
     inkscape:window-y="94" />
  <path
     d="M 27.441530,38.052260 C 26.864130,37.533260 26.116830,37.704260 24.612430,38.453260 C 22.896830,39.309260 19.890230,40.438260 17.334330,40.438260 C 15.635130,40.438260 14.437830,40.463260 12.603630,39.828260 C 4.5940800,37.018260 0.83993000,30.824260 0.83993000,21.369260 C 0.83993000,12.826260 6.8440800,5.0442600 12.679530,2.8212600 C 14.343630,2.1822600 15.720330,2.0212600 17.496130,2.0212600 C 20.979130,2.0212600 24.706630,3.7862600 25.573330,4.2842600 C 26.430530,4.7742600 27.517430,4.8312600 27.984730,4.6112600 C 28.451530,4.3982600 28.604330,4.4972600 29.105330,3.5172600 L 29.733730,3.5172600 C 29.853130,4.8092600 29.828230,13.930260 29.733730,15.075260 L 28.936630,15.075260 C 27.933230,11.728260 26.872930,8.8872600 24.654630,6.3942600 C 21.895130,3.2472600 18.947130,2.7962600 16.000830,3.4672600 C 13.843130,3.9502600 12.212730,5.8112600 11.329930,8.4612600 C 10.556240,10.791260 9.6482800,16.428260 9.6482800,21.155260 C 9.6482800,25.489260 9.8438400,30.237260 10.701750,33.267260 C 11.541630,36.251260 12.517930,37.704260 15.271130,38.815260 C 17.622430,39.767260 21.019630,39.397260 24.111430,36.251260 C 27.501830,32.812260 28.784030,27.186260 28.784030,27.186260 L 29.615330,27.186260 C 29.733730,28.579260 29.479830,38.290260 29.327730,39.667260 L 28.512330,39.667260 C 28.265730,39.067260 27.959830,38.531260 27.441530,38.052260 z M 46.109730,37.508260 C 45.431730,38.314260 44.488130,38.791260 43.341430,38.791260 C 40.938330,38.791260 39.901230,36.634260 39.901230,34.208260 C 39.901230,33.288260 39.892430,31.409260 39.986430,30.671260 C 40.240830,28.686260 41.454930,27.563260 43.723230,27.307260 C 45.074830,27.165260 46.458130,27.129260 47.316030,27.165260 L 47.316030,25.964260 C 42.662730,26.085260 39.629530,26.654260 37.786230,27.186260 C 34.610930,28.138260 32.776230,30.255260 32.350230,32.507260 C 31.900730,34.901260 32.587730,37.049260 33.912930,38.112260 C 35.994230,39.806260 38.118030,40.342260 40.792830,40.342260 C 44.046230,40.342260 46.288930,38.791260 47.520130,37.721260 C 47.520130,37.721260 48.624630,39.003260 48.981530,39.305260 C 49.796730,39.973260 51.325530,40.523260 52.583130,40.523260 C 53.874130,40.523260 55.385830,39.994260 56.081630,39.305260 C 57.076030,38.357260 57.958830,36.982260 58.291130,35.579260 L 57.525230,35.370260 C 57.314330,36.066260 56.854130,37.167260 56.183230,37.629260 C 55.666130,37.984260 55.096030,37.831260 54.655630,36.982260 C 54.433730,36.563260 54.433730,35.767260 54.433730,35.029260 L 54.433730,22.284260 C 54.433730,21.056260 53.746430,19.749260 53.398530,19.255260 C 52.821130,18.406260 51.563830,17.106260 48.429330,16.240260 C 45.575330,15.444260 42.355330,15.508260 40.191030,16.026260 C 38.185430,16.502260 34.431730,18.100260 34.431730,21.642260 C 34.431730,23.649260 36.198830,24.991260 37.871430,24.991260 C 39.553330,24.991260 41.354130,23.649260 41.354130,21.695260 C 41.354130,19.749260 39.690030,18.889260 38.933730,18.619260 C 38.210330,18.350260 38.865830,17.767260 38.975930,17.696260 C 39.697130,17.270260 40.649030,16.694260 42.916830,16.694260 C 45.745730,16.694260 47.316030,17.341260 47.316030,21.084260 L 47.316030,25.964260 L 47.316030,27.165260 L 47.316030,34.390260 C 47.316030,35.270260 46.857530,36.634260 46.109730,37.508260 z M 67.903930,25.183260 C 67.903930,21.262260 69.578730,18.729260 71.157830,18.100260 C 71.319430,18.041260 71.471530,18.189260 71.429330,18.350260 C 71.379530,18.676260 70.894630,18.981260 70.894630,20.416260 C 70.894630,22.370260 72.601430,24.146260 74.741330,24.146260 C 76.721530,24.146260 78.522330,22.270260 78.522330,20.324260 C 78.522330,17.948260 77.051630,16.026260 74.155130,16.026260 C 70.656830,16.026260 68.992530,18.406260 68.422730,19.067260 C 68.218130,19.315260 67.955430,19.443260 67.955430,18.960260 L 67.955430,15.391260 C 67.488130,15.870260 66.163430,16.723260 64.847530,16.723260 L 57.525230,16.723260 L 57.525230,17.642260 L 60.880230,17.642260 L 60.880230,38.900260 L 57.348230,38.900260 L 57.348230,39.809260 L 71.684930,39.809260 L 71.684930,38.900260 L 67.903930,38.900260 L 67.903930,25.183260 M 90.353630,21.347260 C 91.211530,19.635260 92.978630,17.927260 95.084330,17.927260 C 97.045530,17.927260 97.996930,19.450260 97.996930,20.829260 L 97.996930,38.886260 L 94.938830,38.886260 L 94.938830,39.809260 L 108.06293,39.809260 L 108.06293,38.886260 L 105.29293,38.886260 L 105.29293,22.839260 C 105.29293,21.013260 104.64793,19.337260 103.42393,18.144260 C 102.30393,17.049260 99.975430,16.037260 97.938330,16.037260 C 96.162730,16.037260 94.412930,16.658260 92.850430,17.625260 C 91.669530,18.350260 90.634130,19.287260 89.911230,20.182260 C 89.630730,20.512260 89.392430,20.445260 89.392430,20.015260 L 89.392430,15.380260 C 88.909530,15.870260 87.584830,16.723260 86.294030,16.723260 L 79.438330,16.723260 L 79.438330,17.639260 L 82.200330,17.639260 L 82.200330,38.900260 L 79.270130,38.900260 L 79.270130,39.809260 L 92.442030,39.809260 L 92.442030,38.900260 L 89.392430,38.900260 L 89.392430,25.183260 C 89.392430,23.912260 89.843630,22.370260 90.353630,21.347260 z M 116.20793,26.043260 C 116.24093,24.949260 116.28393,22.988260 116.31793,21.251260 C 116.33593,20.267260 116.40293,18.832260 116.81893,18.165260 C 117.30293,17.376260 118.19493,16.886260 119.35093,16.886260 C 120.45393,16.886260 121.15193,17.326260 121.61893,18.193260 C 121.97393,18.861260 122.16993,20.090260 122.16193,21.127260 C 122.15293,23.016260 122.22093,25.023260 122.22093,26.043260 L 116.20793,26.043260 L 116.06393,27.229260 L 130.47693,27.229260 C 130.52793,26.615260 130.53593,25.275260 130.04393,23.713260 C 129.51593,22.086260 127.95393,19.667260 126.56093,18.442260 C 124.78493,16.886260 122.22093,15.877260 119.41893,15.877260 C 116.97993,15.877260 114.65293,16.787260 112.34293,18.676260 C 109.60793,20.946260 108.00293,24.757260 108.00293,28.579260 C 108.00293,31.775260 109.06493,34.926260 111.48593,37.387260 C 113.25293,39.181260 116.85393,40.463260 120.03793,40.463260 C 123.24893,40.463260 126.16193,39.255260 128.17493,36.745260 C 129.46593,35.149260 130.22093,33.359260 130.73993,31.285260 L 129.73793,31.008260 C 128.93893,33.395260 128.01393,35.022260 126.80793,36.378260 C 125.52593,37.807260 123.16393,38.939260 121.24393,38.939260 C 119.45193,38.939260 118.15193,38.243260 117.28593,36.869260 C 116.46993,35.597260 116.31793,34.248260 116.19893,32.777260 C 116.06393,31.313260 116.06393,29.552260 116.06393,27.229260 L 116.20793,26.043260 M 176.39293,25.837260 C 176.40993,24.736260 176.44293,22.789260 176.47693,21.049260 C 176.50393,20.068260 176.57993,18.644260 176.99593,17.969260 C 177.49693,17.184260 178.37193,16.687260 179.52593,16.687260 C 180.63093,16.687260 181.32693,17.134260 181.77793,18.001260 C 182.14193,18.662260 182.33793,19.891260 182.33793,20.928260 C 182.33093,22.825260 182.39793,24.842260 182.39793,25.837260 L 176.39293,25.837260 L 176.23193,27.030260 L 190.65393,27.030260 C 190.70393,26.426260 190.70393,25.076260 190.20293,23.521260 C 189.68393,21.894260 188.12193,19.471260 186.73793,18.242260 C 184.96293,16.687260 182.39793,15.689260 179.58693,15.689260 C 177.15693,15.689260 174.82193,16.584260 172.51993,18.484260 C 169.75793,20.743260 168.17993,24.558260 168.17993,28.369260 C 168.17993,31.580260 169.23293,34.727260 171.64493,37.195260 C 173.42693,38.992260 177.01293,40.278260 180.20693,40.278260 C 183.40893,40.278260 186.32993,39.057260 188.34293,36.542260 C 189.63493,34.950260 190.38893,33.161260 190.90793,31.086260 L 189.90693,30.816260 C 189.11593,33.196260 188.19093,34.823260 186.97593,36.183260 C 185.67593,37.618260 183.34093,38.737260 181.42193,38.737260 C 179.61193,38.737260 178.33893,38.041260 177.44693,36.677260 C 176.62993,35.405260 176.47693,34.049260 176.35793,32.582260 C 176.23193,31.115260 176.23193,29.345260 176.23193,27.030260 L 176.39293,25.837260 M 134.65593,41.266260 C 133.82293,41.663260 132.74493,42.395260 132.11593,42.978260 C 131.24993,43.766260 130.43393,45.145260 130.43393,46.487260 C 130.43393,48.135260 131.21593,49.833260 132.82093,51.062260 C 134.92693,52.688260 137.77293,53.406260 140.93193,53.406260 C 143.38593,53.406260 146.07093,52.696260 147.82993,51.481260 C 149.74993,50.167260 151.04793,48.540260 151.92293,46.395260 C 152.35693,45.308260 152.73793,43.191260 152.73793,41.696260 C 152.73793,40.342260 152.35693,38.801260 151.78593,37.721260 C 151.26993,36.712260 150.40293,35.938260 149.28993,35.466260 C 148.28793,35.050260 147.00593,34.823260 145.50193,34.823260 L 136.57593,34.823260 C 135.41193,34.823260 134.41793,34.538260 134.00193,33.978260 C 133.57593,33.395260 133.63593,32.728260 134.12893,32.173260 C 134.69793,31.527260 136.01393,30.880260 137.08493,30.777260 C 137.69593,30.713260 138.22393,30.713260 138.66393,30.777260 C 139.40293,30.873260 139.98193,31.207260 141.68893,31.207260 C 143.40393,31.207260 145.76393,30.610260 147.21693,29.772260 C 149.50293,28.422260 150.80993,26.100260 150.80993,23.734260 C 150.80993,21.894260 149.87593,19.791260 148.64493,18.474260 C 149.00893,18.008260 150.11293,16.843260 150.69893,16.616260 C 150.99793,16.495260 151.15093,16.744260 150.97093,16.954260 C 150.52193,17.472260 150.25693,18.506260 150.73293,19.450260 C 151.19293,20.384260 152.02493,20.999260 153.24793,20.999260 C 154.60593,20.999260 155.65993,19.912260 155.65993,18.570260 C 155.65993,17.561260 155.14993,16.701260 154.24293,16.065260 C 153.70593,15.696260 153.00993,15.487260 152.27993,15.487260 C 151.46493,15.487260 150.63193,15.824260 150.05493,16.133260 C 149.47593,16.428260 148.64493,17.199260 147.98293,17.895260 C 146.36793,16.744260 144.34693,15.884260 141.87493,15.884260 L 141.96893,16.616260 C 143.36993,16.616260 143.98993,17.277260 144.34693,18.108260 C 144.72893,18.975260 144.73793,19.770260 144.73793,21.219260 L 144.73793,25.794260 C 144.73793,27.087260 144.60993,27.861260 144.22793,28.759260 C 143.81893,29.723260 142.92793,30.312260 141.63693,30.312260 C 140.35493,30.312260 139.47193,29.679260 139.04593,28.582260 C 138.65493,27.577260 138.73993,25.858260 138.73993,25.858260 L 138.73993,21.251260 C 138.73993,21.251260 138.63893,19.337260 139.23393,18.108260 C 139.50593,17.525260 140.30293,16.616260 141.96893,16.616260 L 141.87493,15.884260 C 139.24993,15.884260 137.27193,16.680260 135.56493,17.923260 C 133.98493,19.088260 132.59893,21.283260 132.59893,23.510260 C 132.59893,25.744260 133.72193,28.266260 136.09993,29.645260 C 136.31993,29.772260 136.44793,30.035260 136.14193,30.134260 C 133.11793,31.037260 131.56393,33.249260 131.56393,35.963260 C 131.56393,38.083260 132.87293,39.962260 134.65593,41.266260 L 135.93793,41.696260 C 135.93793,41.696260 145.68793,41.696260 146.36793,41.696260 C 147.64093,41.696260 148.43193,41.791260 149.23993,42.246260 C 150.32693,42.857260 150.69893,43.777260 150.69893,44.863260 C 150.69893,46.459260 149.74993,48.412260 148.55993,49.627260 C 146.99693,51.240260 144.37193,52.454260 141.45993,52.454260 C 138.69793,52.454260 136.55793,51.595260 135.07093,50.117260 C 134.05193,49.094260 133.66093,47.734260 133.66093,46.150260 C 133.66093,44.228260 134.57993,42.736260 135.93793,41.696260 L 134.65593,41.266260 M 165.75093,15.391260 C 165.25793,15.870260 163.94993,16.723260 162.63293,16.723260 L 155.74493,16.723260 L 155.74493,17.642260 L 158.67493,17.642260 L 158.67493,38.900260 L 155.62593,38.900260 L 155.62593,39.809260 L 168.50193,39.809260 L 168.50193,38.900260 L 165.75093,38.900260 L 165.75093,15.391260 M 161.99593,11.306260 C 164.28193,11.306260 166.12393,9.4562600 166.12393,7.1612600 C 166.12393,4.8742600 164.28193,3.0272600 161.99593,3.0272600 C 159.71893,3.0272600 157.85093,4.8742600 157.85093,7.1612600 C 157.85093,9.4562600 159.71893,11.306260 161.99593,11.306260 z M 239.99993,38.698260 L 236.31493,38.698260 L 236.31493,4.1212600 L 240.05093,4.1212600 L 240.05093,3.0332600 L 227.71893,3.0332600 L 218.99693,28.174260 L 209.85693,3.0332600 L 196.67393,3.0332600 L 196.67393,4.1242600 L 200.60793,4.1242600 L 200.60793,34.588260 C 200.60793,36.691260 199.97993,37.259260 199.60493,37.704260 C 199.15593,38.222260 198.56993,38.630260 197.25993,38.630260 L 196.52193,38.630260 L 196.52193,39.795260 L 206.63693,39.795260 L 206.63693,38.677260 L 205.98393,38.677260 C 204.75993,38.677260 203.79293,38.495260 203.06293,37.721260 C 202.48493,37.110260 202.00093,35.405260 202.00093,34.208260 L 202.00093,5.2572600 L 214.52793,39.795260 L 216.19393,39.795260 L 228.02493,5.5062600 L 228.02493,38.698260 L 224.03293,38.698260 L 224.03293,39.795260 L 239.99993,39.795260 L 239.99993,38.698260 M 247.61193,27.030260 L 262.00693,27.030260 C 262.06793,26.412260 262.09193,25.073260 261.59093,23.521260 C 261.06393,21.887260 259.50193,19.465260 258.10893,18.236260 C 256.33393,16.687260 253.76893,15.678260 250.96593,15.678260 C 248.52793,15.678260 246.21693,16.584260 243.89093,18.478260 C 241.13793,20.743260 239.55893,24.558260 239.55893,28.369260 C 239.55893,31.569260 240.61293,34.727260 243.03393,37.181260 C 244.80693,38.986260 248.39293,40.268260 251.57793,40.268260 C 254.78793,40.268260 257.70993,39.046260 259.72293,36.542260 C 261.02193,34.950260 261.76893,33.161260 262.28793,31.079260 L 261.28693,30.809260 C 260.48693,33.196260 259.56193,34.823260 258.34693,36.183260 C 257.08093,37.607260 254.72793,38.737260 252.80093,38.737260 C 250.99093,38.737260 249.72493,38.041260 248.83393,36.659260 C 248.00893,35.405260 247.84893,34.041260 247.73793,32.582260 C 247.61193,31.115260 247.61193,29.339260 247.61193,27.030260 L 247.75593,25.829260 C 247.79793,24.736260 247.81393,22.782260 247.84893,21.041260 C 247.88293,20.068260 247.95993,18.634260 248.37593,17.969260 C 248.85993,17.177260 249.74293,16.687260 250.90593,16.687260 C 252.00193,16.687260 252.69793,17.127260 253.16493,18.001260 C 253.52193,18.655260 253.71693,19.884260 253.71093,20.928260 C 253.71093,22.811260 253.76893,24.832260 253.76893,25.829260 L 247.75593,25.829260 L 247.61193,27.030260 M 262.24593,3.9682600 L 264.84493,3.9682600 L 264.84493,38.808260 L 261.73593,38.808260 L 261.73593,39.803260 L 274.96793,39.803260 L 274.96793,38.815260 L 271.95493,38.815260 L 271.95493,1.6062600 C 271.46893,2.0892600 270.16093,2.9562600 268.85293,2.9632600 L 262.24593,2.9632600 L 262.24593,3.9682600 M 276.74393,3.9682600 L 278.84762,3.9670900 L 278.84762,38.799310 L 276.23393,38.808260 L 276.23393,39.803260 L 289.46593,39.803260 L 289.46593,38.815260 L 286.44393,38.815260 L 286.44393,1.6062600 C 285.95993,2.0892600 284.65893,2.9562600 283.33493,2.9632600 L 276.74393,2.9632600 L 276.74393,3.9682600 M 301.74893,16.822260 C 304.12693,16.822260 306.05493,17.735260 306.05493,23.975260 L 306.05493,31.903260 C 306.05493,38.154260 304.12693,39.249260 301.74893,39.249260 C 299.36193,39.249260 297.42593,38.154260 297.42593,31.903260 L 297.42593,23.975260 C 297.42593,17.735260 299.36193,16.822260 301.74893,16.822260 L 301.63893,15.920260 C 295.08293,15.920260 289.32293,21.589260 289.32293,27.946260 C 289.32293,34.780260 294.44493,40.268260 301.63893,40.268260 C 308.70593,40.268260 313.88493,34.641260 313.88493,27.801260 C 313.88493,21.134260 308.35693,15.920260 301.63893,15.920260 L 301.74893,16.822260 M 325.18193,21.340260 C 326.03993,19.635260 327.79793,17.923260 329.91393,17.923260 C 331.88393,17.923260 332.82593,19.450260 332.82593,20.829260 L 332.82593,38.886260 L 329.76893,38.886260 L 329.76893,39.809260 L 342.88293,39.809260 L 342.88293,38.886260 L 340.12293,38.886260 L 340.12293,22.835260 C 340.12293,21.009260 339.46693,19.315260 338.24593,18.144260 C 337.12393,17.049260 334.80593,16.033260 332.76693,16.033260 C 330.99093,16.033260 329.24193,16.658260 327.66393,17.617260 C 326.49093,18.350260 325.47093,19.287260 324.73293,20.182260 C 324.46193,20.512260 324.22293,20.445260 324.22293,20.015260 L 324.22293,15.380260 C 323.72893,15.866260 322.41393,16.723260 321.09693,16.723260 L 314.26693,16.723260 L 314.26693,17.632260 L 317.01993,17.632260 L 317.01993,38.900260 L 314.08093,38.900260 L 314.08093,39.809260 L 327.27193,39.809260 L 327.27193,38.900260 L 324.22293,38.900260 L 324.22293,25.169260 C 324.22293,23.901260 324.67293,22.370260 325.18193,21.340260"
     id="path8"
     sodipodi:nodetypes="ccccccccccccccccccccccccccccccccccccccccccccccccccccccccccccccccccccccccccccccccccccccccccccccccccccccccccccccccccccccccccccccccccccccccccccccccccccccccccccccccccccccccccccccccccccccccccccccccccccccccccccccccccccccccccccccccccccccccccccccccccccccccccccccccccccccccccccccccccccccccccccccccccccccccccccccccccccccccccccccccccccccccccccccccccccccccccccccccccccc" />
  <g
     stroke="#000000"
     fill="none"
     stroke-width="3.63709"
     stroke-linejoin="miter"
     stroke-linecap="butt"
     stroke-miterlimit="4"
     id="g9"
     transform="translate(0.839900,-662.4487)"
     style="fill:none;stroke:#000000;stroke-width:3.6370900;">
    <path
       d="  M 2.73462 716.281   L 123.462 716.281   "
       id="path10" />
  </g>
  <g
     stroke="#000000"
     fill="none"
     stroke-width="3.63709"
     stroke-linejoin="miter"
     stroke-linecap="butt"
     stroke-miterlimit="4"
     id="g11"
     transform="translate(0.839900,-662.4487)"
     style="fill:none;stroke:#000000;stroke-width:3.6370900;">
    <path
       d="  M 157.087 716.281   L 339.104 716.281   "
       id="path12" />
  </g>
  <g
     fill="#000000"
     fill-rule="nonzero"
     stroke-width="0"
     stroke-linejoin="miter"
     stroke-linecap="butt"
     stroke-miterlimit="4"
     id="g13"
     transform="translate(0.839900,-662.4487)"
     style="stroke-width:0.0000000;">
    <path
       d="  M 4.3064 727.196   L 4.3064 791.347   L 23.1365 791.347   L 23.1365 782.14   L 14.6936 782.14   L 14.6936 759.649   L 23.2559 759.649   L 23.2559 750.99   L 14.5928 750.99   L 14.5928 736.719   L 23.0513 736.719   L 23.0513 727.196   L 4.3064 727.196   "
       id="path14" />
  </g>
  <g
     fill="#000000"
     fill-rule="nonzero"
     stroke-width="0"
     stroke-linejoin="miter"
     stroke-linecap="butt"
     stroke-miterlimit="4"
     id="g15"
     transform="translate(0.839900,-662.4487)"
     style="stroke-width:0.0000000;">
    <path
       d="  M 163.162 727.196   L 163.162 791.347   L 181.983 791.347   L 181.983 782.14   L 173.54 782.14   L 173.54 759.649   L 182.101 759.649   L 182.101 750.99   L 173.439 750.99   L 173.439 736.719   L 181.888 736.719   L 181.888 727.196   L 163.162 727.196   "
       id="path16" />
  </g>
  <g
     fill="#000000"
     fill-rule="nonzero"
     stroke-width="0"
     stroke-linejoin="miter"
     stroke-linecap="butt"
     stroke-miterlimit="4"
     id="g17"
     transform="translate(0.839900,-662.4487)"
     style="stroke-width:0.0000000;">
    <path
       d="  M 191.573 727.196   L 191.573 791.347   L 210.394 791.347   L 210.394 782.14   L 201.933 782.14   L 201.933 759.649   L 210.503 759.649   L 210.503 750.99   L 201.848 750.99   L 201.848 736.719   L 210.299 736.719   L 210.299 727.196   L 191.573 727.196   "
       id="path18" />
  </g>
  <g
     fill="#000000"
     fill-rule="nonzero"
     stroke-width="0"
     stroke-linejoin="miter"
     stroke-linecap="butt"
     stroke-miterlimit="4"
     id="g19"
     transform="translate(0.839900,-662.4487)"
     style="stroke-width:0.0000000;">
    <path
       d="  M 33.1155 791.474   L 33.1155 728.308   L 46.9607 728.308   L 52.0308 764.651   L 52.0308 728.187   L 59.948 728.187   L 59.948 791.474   L 48.2605 791.474   L 41.3291 747.346   L 41.4058 791.474   L 33.1155 791.474   "
       id="path20" />
  </g>
  <g
     fill="#000000"
     fill-rule="nonzero"
     stroke-width="0"
     stroke-linejoin="miter"
     stroke-linecap="butt"
     stroke-miterlimit="4"
     id="g21"
     transform="translate(0.839900,-662.4487)"
     style="stroke-width:0.0000000;">
    <path
       d="  M 125.815 791.474   L 125.815 728.308   L 139.659 728.308   L 144.713 764.651   L 144.713 728.187   L 152.621 728.187   L 152.621 791.474   L 140.941 791.474   L 134.036 747.346   L 134.079 791.474   L 125.815 791.474   "
       id="path22" />
  </g>
  <g
     fill="#000000"
     fill-rule="nonzero"
     stroke-width="0"
     stroke-linejoin="miter"
     stroke-linecap="butt"
     stroke-miterlimit="4"
     id="g23"
     transform="translate(0.839900,-662.4487)"
     style="stroke-width:0.0000000;">
    <path
       d="  M 275.691 791.474   L 275.691 728.308   L 289.518 728.308   L 294.597 764.651   L 294.597 728.187   L 302.497 728.187   L 302.497 791.474   L 290.827 791.474   L 283.905 747.346   L 283.965 791.474   L 275.691 791.474   "
       id="path24" />
  </g>
  <g
     fill="#000000"
     fill-rule="nonzero"
     stroke-width="0"
     stroke-linejoin="miter"
     stroke-linecap="butt"
     stroke-miterlimit="4"
     id="g25"
     transform="translate(0.839900,-662.4487)"
     style="stroke-width:0.0000000;">
    <path
       d="  M 95.1023 750.471   L 95.1023 735.326   C 95.1023 735.326 94.6687 726.667 82.9905 726.667   C 71.3213 726.667 70.8877 733.6 70.8877 733.6   L 70.8877 785.514   C 70.8877 785.514 71.7454 792.444 79.9661 792   C 88.1802 791.577 88.6133 788.98 88.6133 788.98   L 88.6133 791.577   L 94.6687 791.577   L 94.6687 758.69   L 82.6851 758.69   L 82.6851 767.975   L 84.0862 767.975   L 84.0862 782.548   C 84.0862 782.548 83.3726 783.152 82.4048 783.12   C 81.4014 783.078 81.5718 782.548 81.5718 782.548   L 81.5718 737.422   C 81.5718 737.422 81.8184 735.969 82.9302 736.278   C 84.1536 736.612 83.8218 750.5 83.8218 750.5   L 95.1023 750.471   "
       id="path26" />
  </g>
  <g
     fill="#000000"
     fill-rule="nonzero"
     stroke-width="0"
     stroke-linejoin="miter"
     stroke-linecap="butt"
     stroke-miterlimit="4"
     id="g27"
     transform="translate(0.839900,-662.4487)"
     style="stroke-width:0.0000000;">
    <path
       d="  M 336.921 750.471   L 336.921 735.326   C 336.921 735.326 336.488 726.667 324.8 726.667   C 313.113 726.667 312.698 733.6 312.698 733.6   L 312.698 785.514   C 312.698 785.514 313.555 792.444 321.769 792   C 329.999 791.577 330.432 788.98 330.432 788.98   L 330.432 791.577   L 336.488 791.577   L 336.488 758.69   L 324.513 758.69   L 324.513 767.975   L 325.905 767.975   L 325.905 782.548   C 325.905 782.548 325.184 783.152 324.241 783.12   C 323.212 783.078 323.383 782.548 323.383 782.548   L 323.383 737.422   C 323.383 737.422 323.628 735.969 324.742 736.278   C 325.957 736.612 325.633 750.5 325.633 750.5   L 336.921 750.471   "
       id="path28" />
  </g>
  <g
     fill="#000000"
     fill-rule="nonzero"
     stroke-width="0"
     stroke-linejoin="miter"
     stroke-linecap="butt"
     stroke-miterlimit="4"
     id="g29"
     transform="translate(0.839900,-662.4487)"
     style="stroke-width:0.0000000;">
    <path
       d="  M 105.362 727.839   L 115.783 727.892   L 115.783 790.679   L 105.387 790.679   L 105.362 727.839   "
       id="path30" />
  </g>
  <g
     fill="#000000"
     fill-rule="nonzero"
     stroke-width="0"
     stroke-linejoin="miter"
     stroke-linecap="butt"
     stroke-miterlimit="4"
     id="g31"
     transform="translate(0.839900,-662.4487)"
     style="stroke-width:0.0000000;">
    <path
       d="  M 253.371 727.839   L 263.767 727.892   L 263.767 790.679   L 253.405 790.679   L 253.371 727.839   "
       id="path32" />
  </g>
  <g
     fill="#000000"
     fill-rule="nonzero"
     stroke-width="0"
     stroke-linejoin="miter"
     stroke-linecap="butt"
     stroke-miterlimit="4"
     id="g33"
     transform="translate(0.839900,-662.4487)"
     style="stroke-width:0.0000000;">
    <path
       d="  M 243.671 791.015   C 243.671 791.015 243.476 763.073 242.023 760.253   C 240.383 757.067 237.081 756.74 237.081 756.74   C 237.081 756.74 241.293 755.369 242.133 752.553   C 242.984 749.761 245.208 728.379 236.977 728.166   C 231.917 728.031 220.33 728.166 220.33 728.166   L 220.33 791.24   L 230.412 791.24   L 230.412 761.816   C 230.412 761.816 232.945 760.132 233.785 763.215   C 234.609 766.299 234.227 791.015 234.227 791.015   L 243.671 791.015   M 232.909 753.437   C 232.468 754.868 230.047 754.315 230.047 754.315   L 230.047 736.964   C 230.047 736.964 231.806 736.626 232.909 737.72   C 233.36 738.178 233.335 752.013 232.909 753.437   "
       id="path34" />
  </g>
</svg>
