<?xml version="1.0" encoding="UTF-8" standalone="no"?>
<!DOCTYPE svg PUBLIC "-//W3C//DTD SVG 1.0//EN"
"http://www.w3.org/TR/2001/REC-SVG-20010904/DTD/svg10.dtd">
<!-- Created with Inkscape (http://www.inkscape.org/) -->
<svg
   id="svg856"
   sodipodi:version="0.32"
   inkscape:version="0.38.1"
   xmlns="http://www.w3.org/2000/svg"
   xmlns:sodipodi="http://sodipodi.sourceforge.net/DTD/sodipodi-0.dtd"
   xmlns:inkscape="http://www.inkscape.org/namespaces/inkscape"
   xmlns:xlink="http://www.w3.org/1999/xlink"
   width="276.00000pt"
   height="104.00000pt"
   sodipodi:docbase="/home/patrick/Documents/graphics"
   sodipodi:docname="citblue2.svgz">
  <defs
     id="defs858" />
  <sodipodi:namedview
     id="base"
     pagecolor="#ffffff"
     bordercolor="#666666"
     borderopacity="1.0"
     inkscape:pageopacity="0.0"
     inkscape:pageshadow="2"
     inkscape:zoom="2.7501754"
     inkscape:cx="156.09290"
     inkscape:cy="101.78146"
     inkscape:window-width="1063"
     inkscape:window-height="781"
     inkscape:window-x="14"
     inkscape:window-y="94" />
  <g
     id="g859"
     transform="translate(-0.130621,0.840800)">
    <path
       d="M 26.601600,700.50100 C 26.024200,699.98200 25.276900,700.15300 23.772500,700.90200 C 22.056900,701.75800 19.050300,702.88700 16.494400,702.88700 C 14.795200,702.88700 13.597900,702.91200 11.763700,702.27700 C 3.7541500,699.46700 0.0000000,693.27300 0.0000000,683.81800 C 0.0000000,675.27500 6.0041500,667.49300 11.839600,665.27000 C 13.503700,664.63100 14.880400,664.47000 16.656200,664.47000 C 20.139200,664.47000 23.866700,666.23500 24.733400,666.73300 C 25.590600,667.22300 26.677500,667.28000 27.144800,667.06000 C 27.611600,666.84700 27.764400,666.94600 28.265400,665.96600 L 28.893800,665.96600 C 29.013200,667.25800 28.988300,676.37900 28.893800,677.52400 L 28.096700,677.52400 C 27.093300,674.17700 26.033000,671.33600 23.814700,668.84300 C 21.055200,665.69600 18.107200,665.24500 15.160900,665.91600 C 13.003200,666.39900 11.372800,668.26000 10.490000,670.91000 C 9.7163100,673.24000 8.8083500,678.87700 8.8083500,683.60400 C 8.8083500,687.93800 9.0039100,692.68600 9.8618200,695.71600 C 10.701700,698.70000 11.678000,700.15300 14.431200,701.26400 C 16.782500,702.21600 20.179700,701.84600 23.271500,698.70000 C 26.661900,695.26100 27.944100,689.63500 27.944100,689.63500 L 28.775400,689.63500 C 28.893800,691.02800 28.639900,700.73900 28.487800,702.11600 L 27.672400,702.11600 C 27.425800,701.51600 27.119900,700.98000 26.601600,700.50100 z M 45.269800,699.95700 C 44.591800,700.76300 43.648200,701.24000 42.501500,701.24000 C 40.098400,701.24000 39.061300,699.08300 39.061300,696.65700 C 39.061300,695.73700 39.052500,693.85800 39.146500,693.12000 C 39.400900,691.13500 40.615000,690.01200 42.883300,689.75600 C 44.234900,689.61400 45.618200,689.57800 46.476100,689.61400 L 46.476100,688.41300 C 41.822800,688.53400 38.789600,689.10300 36.946300,689.63500 C 33.771000,690.58700 31.936300,692.70400 31.510300,694.95600 C 31.060800,697.35000 31.747800,699.49800 33.073000,700.56100 C 35.154300,702.25500 37.278100,702.79100 39.952900,702.79100 C 43.206300,702.79100 45.449000,701.24000 46.680200,700.17000 C 46.680200,700.17000 47.784700,701.45200 48.141600,701.75400 C 48.956800,702.42200 50.485600,702.97200 51.743200,702.97200 C 53.034200,702.97200 54.545900,702.44300 55.241700,701.75400 C 56.236100,700.80600 57.118900,699.43100 57.451200,698.02800 L 56.685300,697.81900 C 56.474400,698.51500 56.014200,699.61600 55.343300,700.07800 C 54.826200,700.43300 54.256100,700.28000 53.815700,699.43100 C 53.593800,699.01200 53.593800,698.21600 53.593800,697.47800 L 53.593800,684.73300 C 53.593800,683.50500 52.906500,682.19800 52.558600,681.70400 C 51.981200,680.85500 50.723900,679.55500 47.589400,678.68900 C 44.735400,677.89300 41.515400,677.95700 39.351100,678.47500 C 37.345500,678.95100 33.591800,680.54900 33.591800,684.09100 C 33.591800,686.09800 35.358900,687.44000 37.031500,687.44000 C 38.713400,687.44000 40.514200,686.09800 40.514200,684.14400 C 40.514200,682.19800 38.850100,681.33800 38.093800,681.06800 C 37.370400,680.79900 38.025900,680.21600 38.136000,680.14500 C 38.857200,679.71900 39.809100,679.14300 42.076900,679.14300 C 44.905800,679.14300 46.476100,679.79000 46.476100,683.53300 L 46.476100,688.41300 L 46.476100,689.61400 L 46.476100,696.83900 C 46.476100,697.71900 46.017600,699.08300 45.269800,699.95700 z M 67.064000,687.63200 C 67.064000,683.71100 68.738800,681.17800 70.317900,680.54900 C 70.479500,680.49000 70.631600,680.63800 70.589400,680.79900 C 70.539600,681.12500 70.054700,681.43000 70.054700,682.86500 C 70.054700,684.81900 71.761500,686.59500 73.901400,686.59500 C 75.881600,686.59500 77.682400,684.71900 77.682400,682.77300 C 77.682400,680.39700 76.211700,678.47500 73.315200,678.47500 C 69.816900,678.47500 68.152600,680.85500 67.582800,681.51600 C 67.378200,681.76400 67.115500,681.89200 67.115500,681.40900 L 67.115500,677.84000 C 66.648200,678.31900 65.323500,679.17200 64.007600,679.17200 L 56.685300,679.17200 L 56.685300,680.09100 L 60.040300,680.09100 L 60.040300,701.34900 L 56.508300,701.34900 L 56.508300,702.25800 L 70.845000,702.25800 L 70.845000,701.34900 L 67.064000,701.34900 L 67.064000,687.63200 M 89.513700,683.79600 C 90.371600,682.08400 92.138700,680.37600 94.244400,680.37600 C 96.205600,680.37600 97.157000,681.89900 97.157000,683.27800 L 97.157000,701.33500 L 94.098900,701.33500 L 94.098900,702.25800 L 107.22300,702.25800 L 107.22300,701.33500 L 104.45300,701.33500 L 104.45300,685.28800 C 104.45300,683.46200 103.80800,681.78600 102.58400,680.59300 C 101.46400,679.49800 99.135500,678.48600 97.098400,678.48600 C 95.322800,678.48600 93.573000,679.10700 92.010500,680.07400 C 90.829600,680.79900 89.794200,681.73600 89.071300,682.63100 C 88.790800,682.96100 88.552500,682.89400 88.552500,682.46400 L 88.552500,677.82900 C 88.069600,678.31900 86.744900,679.17200 85.454100,679.17200 L 78.598400,679.17200 L 78.598400,680.08800 L 81.360400,680.08800 L 81.360400,701.34900 L 78.430200,701.34900 L 78.430200,702.25800 L 91.602100,702.25800 L 91.602100,701.34900 L 88.552500,701.34900 L 88.552500,687.63200 C 88.552500,686.36100 89.003700,684.81900 89.513700,683.79600 z M 115.36800,688.49200 C 115.40100,687.39800 115.44400,685.43700 115.47800,683.70000 C 115.49600,682.71600 115.56300,681.28100 115.97900,680.61400 C 116.46300,679.82500 117.35500,679.33500 118.51100,679.33500 C 119.61400,679.33500 120.31200,679.77500 120.77900,680.64200 C 121.13400,681.31000 121.33000,682.53900 121.32200,683.57600 C 121.31300,685.46500 121.38100,687.47200 121.38100,688.49200 L 115.36800,688.49200 L 115.22400,689.67800 L 129.63700,689.67800 C 129.68800,689.06400 129.69600,687.72400 129.20400,686.16200 C 128.67600,684.53500 127.11400,682.11600 125.72100,680.89100 C 123.94500,679.33500 121.38100,678.32600 118.57900,678.32600 C 116.14000,678.32600 113.81300,679.23600 111.50300,681.12500 C 108.76800,683.39500 107.16300,687.20600 107.16300,691.02800 C 107.16300,694.22400 108.22500,697.37500 110.64600,699.83600 C 112.41300,701.63000 116.01400,702.91200 119.19800,702.91200 C 122.40900,702.91200 125.32200,701.70400 127.33500,699.19400 C 128.62600,697.59800 129.38100,695.80800 129.90000,693.73400 L 128.89800,693.45700 C 128.09900,695.84400 127.17400,697.47100 125.96800,698.82700 C 124.68600,700.25600 122.32400,701.38800 120.40400,701.38800 C 118.61200,701.38800 117.31200,700.69200 116.44600,699.31800 C 115.63000,698.04600 115.47800,696.69700 115.35900,695.22600 C 115.22400,693.76200 115.22400,692.00100 115.22400,689.67800 L 115.36800,688.49200 M 175.55300,688.28600 C 175.57000,687.18500 175.60300,685.23800 175.63700,683.49800 C 175.66400,682.51700 175.74000,681.09300 176.15600,680.41800 C 176.65700,679.63300 177.53200,679.13600 178.68600,679.13600 C 179.79100,679.13600 180.48700,679.58300 180.93800,680.45000 C 181.30200,681.11100 181.49800,682.34000 181.49800,683.37700 C 181.49100,685.27400 181.55800,687.29100 181.55800,688.28600 L 175.55300,688.28600 L 175.39200,689.47900 L 189.81400,689.47900 C 189.86400,688.87500 189.86400,687.52500 189.36300,685.97000 C 188.84400,684.34300 187.28200,681.92000 185.89800,680.69100 C 184.12300,679.13600 181.55800,678.13800 178.74700,678.13800 C 176.31700,678.13800 173.98200,679.03300 171.68000,680.93300 C 168.91800,683.19200 167.34000,687.00700 167.34000,690.81800 C 167.34000,694.02900 168.39300,697.17600 170.80500,699.64400 C 172.58700,701.44100 176.17300,702.72700 179.36700,702.72700 C 182.56900,702.72700 185.49000,701.50600 187.50300,698.99100 C 188.79500,697.39900 189.54900,695.61000 190.06800,693.53500 L 189.06700,693.26500 C 188.27600,695.64500 187.35100,697.27200 186.13600,698.63200 C 184.83600,700.06700 182.50100,701.18600 180.58200,701.18600 C 178.77200,701.18600 177.49900,700.49000 176.60700,699.12600 C 175.79000,697.85400 175.63700,696.49800 175.51800,695.03100 C 175.39200,693.56400 175.39200,691.79400 175.39200,689.47900 L 175.55300,688.28600 M 133.81600,703.71500 C 132.98300,704.11200 131.90500,704.84400 131.27600,705.42700 C 130.41000,706.21500 129.59400,707.59400 129.59400,708.93600 C 129.59400,710.58400 130.37600,712.28200 131.98100,713.51100 C 134.08700,715.13700 136.93300,715.85500 140.09200,715.85500 C 142.54600,715.85500 145.23100,715.14500 146.99000,713.93000 C 148.91000,712.61600 150.20800,710.98900 151.08300,708.84400 C 151.51700,707.75700 151.89800,705.64000 151.89800,704.14500 C 151.89800,702.79100 151.51700,701.25000 150.94600,700.17000 C 150.43000,699.16100 149.56300,698.38700 148.45000,697.91500 C 147.44800,697.49900 146.16600,697.27200 144.66200,697.27200 L 135.73600,697.27200 C 134.57200,697.27200 133.57800,696.98700 133.16200,696.42700 C 132.73600,695.84400 132.79600,695.17700 133.28900,694.62200 C 133.85800,693.97600 135.17400,693.32900 136.24500,693.22600 C 136.85600,693.16200 137.38400,693.16200 137.82400,693.22600 C 138.56300,693.32200 139.14200,693.65600 140.84900,693.65600 C 142.56400,693.65600 144.92400,693.05900 146.37700,692.22100 C 148.66300,690.87100 149.97000,688.54900 149.97000,686.18300 C 149.97000,684.34300 149.03600,682.24000 147.80500,680.92300 C 148.16900,680.45700 149.27300,679.29200 149.85900,679.06500 C 150.15800,678.94400 150.31100,679.19300 150.13100,679.40300 C 149.68200,679.92100 149.41700,680.95500 149.89300,681.89900 C 150.35300,682.83300 151.18500,683.44800 152.40800,683.44800 C 153.76600,683.44800 154.82000,682.36100 154.82000,681.01900 C 154.82000,680.01000 154.31000,679.15000 153.40300,678.51400 C 152.86600,678.14500 152.17000,677.93600 151.44000,677.93600 C 150.62500,677.93600 149.79200,678.27300 149.21500,678.58200 C 148.63600,678.87700 147.80500,679.64800 147.14300,680.34400 C 145.52800,679.19300 143.50700,678.33300 141.03500,678.33300 L 141.12900,679.06500 C 142.53000,679.06500 143.15000,679.72600 143.50700,680.55700 C 143.88900,681.42400 143.89800,682.21900 143.89800,683.66800 L 143.89800,688.24300 C 143.89800,689.53600 143.77000,690.31000 143.38800,691.20800 C 142.97900,692.17200 142.08800,692.76100 140.79700,692.76100 C 139.51500,692.76100 138.63200,692.12800 138.20600,691.03100 C 137.81500,690.02600 137.90000,688.30700 137.90000,688.30700 L 137.90000,683.70000 C 137.90000,683.70000 137.79900,681.78600 138.39400,680.55700 C 138.66600,679.97400 139.46300,679.06500 141.12900,679.06500 L 141.03500,678.33300 C 138.41000,678.33300 136.43200,679.12900 134.72500,680.37200 C 133.14500,681.53700 131.75900,683.73200 131.75900,685.95900 C 131.75900,688.19300 132.88200,690.71500 135.26000,692.09400 C 135.48000,692.22100 135.60800,692.48400 135.30200,692.58300 C 132.27800,693.48600 130.72400,695.69800 130.72400,698.41200 C 130.72400,700.53200 132.03300,702.41100 133.81600,703.71500 L 135.09800,704.14500 C 135.09800,704.14500 144.84800,704.14500 145.52800,704.14500 C 146.80100,704.14500 147.59200,704.24000 148.40000,704.69500 C 149.48700,705.30600 149.85900,706.22600 149.85900,707.31200 C 149.85900,708.90800 148.91000,710.86100 147.72000,712.07600 C 146.15700,713.68900 143.53200,714.90300 140.62000,714.90300 C 137.85800,714.90300 135.71800,714.04400 134.23100,712.56600 C 133.21200,711.54300 132.82100,710.18300 132.82100,708.59900 C 132.82100,706.67700 133.74000,705.18500 135.09800,704.14500 L 133.81600,703.71500 M 164.91100,677.84000 C 164.41800,678.31900 163.11000,679.17200 161.79300,679.17200 L 154.90500,679.17200 L 154.90500,680.09100 L 157.83500,680.09100 L 157.83500,701.34900 L 154.78600,701.34900 L 154.78600,702.25800 L 167.66200,702.25800 L 167.66200,701.34900 L 164.91100,701.34900 L 164.91100,677.84000 M 161.15600,673.75500 C 163.44200,673.75500 165.28400,671.90500 165.28400,669.61000 C 165.28400,667.32300 163.44200,665.47600 161.15600,665.47600 C 158.87900,665.47600 157.01100,667.32300 157.01100,669.61000 C 157.01100,671.90500 158.87900,673.75500 161.15600,673.75500 z M 239.16000,701.14700 L 235.47500,701.14700 L 235.47500,666.57000 L 239.21100,666.57000 L 239.21100,665.48200 L 226.87900,665.48200 L 218.15700,690.62300 L 209.01700,665.48200 L 195.83400,665.48200 L 195.83400,666.57300 L 199.76800,666.57300 L 199.76800,697.03700 C 199.76800,699.14000 199.14000,699.70800 198.76500,700.15300 C 198.31600,700.67100 197.73000,701.07900 196.42000,701.07900 L 195.68200,701.07900 L 195.68200,702.24400 L 205.79700,702.24400 L 205.79700,701.12600 L 205.14400,701.12600 C 203.92000,701.12600 202.95300,700.94400 202.22300,700.17000 C 201.64500,699.55900 201.16100,697.85400 201.16100,696.65700 L 201.16100,667.70600 L 213.68800,702.24400 L 215.35400,702.24400 L 227.18500,667.95500 L 227.18500,701.14700 L 223.19300,701.14700 L 223.19300,702.24400 L 239.16000,702.24400 L 239.16000,701.14700 M 246.77200,689.47900 L 261.16700,689.47900 C 261.22800,688.86100 261.25200,687.52200 260.75100,685.97000 C 260.22400,684.33600 258.66200,681.91400 257.26900,680.68500 C 255.49400,679.13600 252.92900,678.12700 250.12600,678.12700 C 247.68800,678.12700 245.37700,679.03300 243.05100,680.92700 C 240.29800,683.19200 238.71900,687.00700 238.71900,690.81800 C 238.71900,694.01800 239.77300,697.17600 242.19400,699.63000 C 243.96700,701.43500 247.55300,702.71700 250.73800,702.71700 C 253.94800,702.71700 256.87000,701.49500 258.88300,698.99100 C 260.18200,697.39900 260.92900,695.61000 261.44800,693.52800 L 260.44700,693.25800 C 259.64700,695.64500 258.72200,697.27200 257.50700,698.63200 C 256.24100,700.05600 253.88800,701.18600 251.96100,701.18600 C 250.15100,701.18600 248.88500,700.49000 247.99400,699.10800 C 247.16900,697.85400 247.00900,696.49000 246.89800,695.03100 C 246.77200,693.56400 246.77200,691.78800 246.77200,689.47900 L 246.91600,688.27800 C 246.95800,687.18500 246.97400,685.23100 247.00900,683.49000 C 247.04300,682.51700 247.12000,681.08300 247.53600,680.41800 C 248.02000,679.62600 248.90300,679.13600 250.06600,679.13600 C 251.16200,679.13600 251.85800,679.57600 252.32500,680.45000 C 252.68200,681.10400 252.87700,682.33300 252.87100,683.37700 C 252.87100,685.26000 252.92900,687.28100 252.92900,688.27800 L 246.91600,688.27800 L 246.77200,689.47900 M 261.40600,666.41700 L 264.00500,666.41700 L 264.00500,701.25700 L 260.89600,701.25700 L 260.89600,702.25200 L 274.12800,702.25200 L 274.12800,701.26400 L 271.11500,701.26400 L 271.11500,664.05500 C 270.62900,664.53800 269.32100,665.40500 268.01300,665.41200 L 261.40600,665.41200 L 261.40600,666.41700 M 275.90400,666.41700 L 278.00769,666.41583 L 278.00769,701.24805 L 275.39400,701.25700 L 275.39400,702.25200 L 288.62600,702.25200 L 288.62600,701.26400 L 285.60400,701.26400 L 285.60400,664.05500 C 285.12000,664.53800 283.81900,665.40500 282.49500,665.41200 L 275.90400,665.41200 L 275.90400,666.41700 M 300.90900,679.27100 C 303.28700,679.27100 305.21500,680.18400 305.21500,686.42400 L 305.21500,694.35200 C 305.21500,700.60300 303.28700,701.69800 300.90900,701.69800 C 298.52200,701.69800 296.58600,700.60300 296.58600,694.35200 L 296.58600,686.42400 C 296.58600,680.18400 298.52200,679.27100 300.90900,679.27100 L 300.79900,678.36900 C 294.24300,678.36900 288.48300,684.03800 288.48300,690.39500 C 288.48300,697.22900 293.60500,702.71700 300.79900,702.71700 C 307.86600,702.71700 313.04500,697.09000 313.04500,690.25000 C 313.04500,683.58300 307.51700,678.36900 300.79900,678.36900 L 300.90900,679.27100 M 324.34200,683.78900 C 325.20000,682.08400 326.95800,680.37200 329.07400,680.37200 C 331.04400,680.37200 331.98600,681.89900 331.98600,683.27800 L 331.98600,701.33500 L 328.92900,701.33500 L 328.92900,702.25800 L 342.04300,702.25800 L 342.04300,701.33500 L 339.28300,701.33500 L 339.28300,685.28400 C 339.28300,683.45800 338.62700,681.76400 337.40600,680.59300 C 336.28400,679.49800 333.96600,678.48200 331.92700,678.48200 C 330.15100,678.48200 328.40200,679.10700 326.82400,680.06600 C 325.65100,680.79900 324.63100,681.73600 323.89300,682.63100 C 323.62200,682.96100 323.38300,682.89400 323.38300,682.46400 L 323.38300,677.82900 C 322.88900,678.31500 321.57400,679.17200 320.25700,679.17200 L 313.42700,679.17200 L 313.42700,680.08100 L 316.18000,680.08100 L 316.18000,701.34900 L 313.24100,701.34900 L 313.24100,702.25800 L 326.43200,702.25800 L 326.43200,701.34900 L 323.38300,701.34900 L 323.38300,687.61800 C 323.38300,686.35000 323.83300,684.81900 324.34200,683.78900"
       id="path922"
       transform="translate(2.049610,-663.1842)"
       style="fill:#0634d0;fill-opacity:1.0000000;"
       sodipodi:nodetypes="ccccccccccccccccccccccccccccccccccccccccccccccccccccccccccccccccccccccccccccccccccccccccccccccccccccccccccccccccccccccccccccccccccccccccccccccccccccccccccccccccccccccccccccccccccccccccccccccccccccccccccccccccccccccccccccccccccccccccccccccccccccccccccccccccccccccccccccccccccccccccccccccccccccccccccccccccccccccccccccccccccccccccccccccccccccccccccccccccccccc" />
    <g
       stroke="#0634d0"
       fill="none"
       stroke-width="3.63709"
       stroke-linejoin="miter"
       stroke-linecap="butt"
       stroke-miterlimit="4"
       id="g923"
       transform="translate(2.049610,-663.1842)"
       style="fill:none;stroke:#0634d0;stroke-width:3.6370900;">
      <path
         d="  M 2.73462 716.281   L 123.462 716.281   "
         id="path924" />
    </g>
    <g
       stroke="#0634d0"
       fill="none"
       stroke-width="3.63709"
       stroke-linejoin="miter"
       stroke-linecap="butt"
       stroke-miterlimit="4"
       id="g925"
       transform="translate(2.049610,-663.1842)"
       style="fill:none;stroke:#0634d0;stroke-width:3.6370900;">
      <path
         d="  M 157.087 716.281   L 339.104 716.281   "
         id="path926" />
    </g>
    <g
       fill="#0634d0"
       fill-rule="nonzero"
       stroke-width="0"
       stroke-linejoin="miter"
       stroke-linecap="butt"
       stroke-miterlimit="4"
       id="g927"
       transform="translate(2.049610,-663.1842)"
       style="stroke-width:0.0000000;">
      <path
         d="  M 4.3064 727.196   L 4.3064 791.347   L 23.1365 791.347   L 23.1365 782.14   L 14.6936 782.14   L 14.6936 759.649   L 23.2559 759.649   L 23.2559 750.99   L 14.5928 750.99   L 14.5928 736.719   L 23.0513 736.719   L 23.0513 727.196   L 4.3064 727.196   "
         id="path928" />
    </g>
    <g
       fill="#0634d0"
       fill-rule="nonzero"
       stroke-width="0"
       stroke-linejoin="miter"
       stroke-linecap="butt"
       stroke-miterlimit="4"
       id="g929"
       transform="translate(2.049610,-663.1842)"
       style="stroke-width:0.0000000;">
      <path
         d="  M 163.162 727.196   L 163.162 791.347   L 181.983 791.347   L 181.983 782.14   L 173.54 782.14   L 173.54 759.649   L 182.101 759.649   L 182.101 750.99   L 173.439 750.99   L 173.439 736.719   L 181.888 736.719   L 181.888 727.196   L 163.162 727.196   "
         id="path930" />
    </g>
    <g
       fill="#0634d0"
       fill-rule="nonzero"
       stroke-width="0"
       stroke-linejoin="miter"
       stroke-linecap="butt"
       stroke-miterlimit="4"
       id="g931"
       transform="translate(2.049610,-663.1842)"
       style="stroke-width:0.0000000;">
      <path
         d="  M 191.573 727.196   L 191.573 791.347   L 210.394 791.347   L 210.394 782.14   L 201.933 782.14   L 201.933 759.649   L 210.503 759.649   L 210.503 750.99   L 201.848 750.99   L 201.848 736.719   L 210.299 736.719   L 210.299 727.196   L 191.573 727.196   "
         id="path932" />
    </g>
    <g
       fill="#0634d0"
       fill-rule="nonzero"
       stroke-width="0"
       stroke-linejoin="miter"
       stroke-linecap="butt"
       stroke-miterlimit="4"
       id="g933"
       transform="translate(2.049610,-663.1842)"
       style="stroke-width:0.0000000;">
      <path
         d="  M 33.1155 791.474   L 33.1155 728.308   L 46.9607 728.308   L 52.0308 764.651   L 52.0308 728.187   L 59.948 728.187   L 59.948 791.474   L 48.2605 791.474   L 41.3291 747.346   L 41.4058 791.474   L 33.1155 791.474   "
         id="path934" />
    </g>
    <g
       fill="#0634d0"
       fill-rule="nonzero"
       stroke-width="0"
       stroke-linejoin="miter"
       stroke-linecap="butt"
       stroke-miterlimit="4"
       id="g935"
       transform="translate(2.049610,-663.1842)"
       style="stroke-width:0.0000000;">
      <path
         d="  M 125.815 791.474   L 125.815 728.308   L 139.659 728.308   L 144.713 764.651   L 144.713 728.187   L 152.621 728.187   L 152.621 791.474   L 140.941 791.474   L 134.036 747.346   L 134.079 791.474   L 125.815 791.474   "
         id="path936" />
    </g>
    <g
       fill="#0634d0"
       fill-rule="nonzero"
       stroke-width="0"
       stroke-linejoin="miter"
       stroke-linecap="butt"
       stroke-miterlimit="4"
       id="g937"
       transform="translate(2.049610,-663.1842)"
       style="stroke-width:0.0000000;">
      <path
         d="  M 275.691 791.474   L 275.691 728.308   L 289.518 728.308   L 294.597 764.651   L 294.597 728.187   L 302.497 728.187   L 302.497 791.474   L 290.827 791.474   L 283.905 747.346   L 283.965 791.474   L 275.691 791.474   "
         id="path938" />
    </g>
    <g
       fill="#0634d0"
       fill-rule="nonzero"
       stroke-width="0"
       stroke-linejoin="miter"
       stroke-linecap="butt"
       stroke-miterlimit="4"
       id="g939"
       transform="translate(2.049610,-663.1842)"
       style="stroke-width:0.0000000;">
      <path
         d="  M 95.1023 750.471   L 95.1023 735.326   C 95.1023 735.326 94.6687 726.667 82.9905 726.667   C 71.3213 726.667 70.8877 733.6 70.8877 733.6   L 70.8877 785.514   C 70.8877 785.514 71.7454 792.444 79.9661 792   C 88.1802 791.577 88.6133 788.98 88.6133 788.98   L 88.6133 791.577   L 94.6687 791.577   L 94.6687 758.69   L 82.6851 758.69   L 82.6851 767.975   L 84.0862 767.975   L 84.0862 782.548   C 84.0862 782.548 83.3726 783.152 82.4048 783.12   C 81.4014 783.078 81.5718 782.548 81.5718 782.548   L 81.5718 737.422   C 81.5718 737.422 81.8184 735.969 82.9302 736.278   C 84.1536 736.612 83.8218 750.5 83.8218 750.5   L 95.1023 750.471   "
         id="path940" />
    </g>
    <g
       fill="#0634d0"
       fill-rule="nonzero"
       stroke-width="0"
       stroke-linejoin="miter"
       stroke-linecap="butt"
       stroke-miterlimit="4"
       id="g941"
       transform="translate(2.049610,-663.1842)"
       style="stroke-width:0.0000000;">
      <path
         d="  M 336.921 750.471   L 336.921 735.326   C 336.921 735.326 336.488 726.667 324.8 726.667   C 313.113 726.667 312.698 733.6 312.698 733.6   L 312.698 785.514   C 312.698 785.514 313.555 792.444 321.769 792   C 329.999 791.577 330.432 788.98 330.432 788.98   L 330.432 791.577   L 336.488 791.577   L 336.488 758.69   L 324.513 758.69   L 324.513 767.975   L 325.905 767.975   L 325.905 782.548   C 325.905 782.548 325.184 783.152 324.241 783.12   C 323.212 783.078 323.383 782.548 323.383 782.548   L 323.383 737.422   C 323.383 737.422 323.628 735.969 324.742 736.278   C 325.957 736.612 325.633 750.5 325.633 750.5   L 336.921 750.471   "
         id="path942" />
    </g>
    <g
       fill="#0634d0"
       fill-rule="nonzero"
       stroke-width="0"
       stroke-linejoin="miter"
       stroke-linecap="butt"
       stroke-miterlimit="4"
       id="g943"
       transform="translate(2.049610,-663.1842)"
       style="stroke-width:0.0000000;">
      <path
         d="  M 105.362 727.839   L 115.783 727.892   L 115.783 790.679   L 105.387 790.679   L 105.362 727.839   "
         id="path944" />
    </g>
    <g
       fill="#0634d0"
       fill-rule="nonzero"
       stroke-width="0"
       stroke-linejoin="miter"
       stroke-linecap="butt"
       stroke-miterlimit="4"
       id="g945"
       transform="translate(2.049610,-663.1842)"
       style="stroke-width:0.0000000;">
      <path
         d="  M 253.371 727.839   L 263.767 727.892   L 263.767 790.679   L 253.405 790.679   L 253.371 727.839   "
         id="path946" />
    </g>
    <g
       fill="#0634d0"
       fill-rule="nonzero"
       stroke-width="0"
       stroke-linejoin="miter"
       stroke-linecap="butt"
       stroke-miterlimit="4"
       id="g947"
       transform="translate(2.049610,-663.1842)"
       style="stroke-width:0.0000000;">
      <path
         d="  M 243.671 791.015   C 243.671 791.015 243.476 763.073 242.023 760.253   C 240.383 757.067 237.081 756.74 237.081 756.74   C 237.081 756.74 241.293 755.369 242.133 752.553   C 242.984 749.761 245.208 728.379 236.977 728.166   C 231.917 728.031 220.33 728.166 220.33 728.166   L 220.33 791.24   L 230.412 791.24   L 230.412 761.816   C 230.412 761.816 232.945 760.132 233.785 763.215   C 234.609 766.299 234.227 791.015 234.227 791.015   L 243.671 791.015   M 232.909 753.437   C 232.468 754.868 230.047 754.315 230.047 754.315   L 230.047 736.964   C 230.047 736.964 231.806 736.626 232.909 737.72   C 233.36 738.178 233.335 752.013 232.909 753.437   "
         id="path948" />
    </g>
  </g>
</svg>
